<?xml version="1.0" encoding="UTF-8"?>
<svg id="Layer_1" data-name="Layer 1" xmlns="http://www.w3.org/2000/svg" viewBox="0 0 1002.22 78.17">
  <defs>
    <style>
      .cls-1 {
        fill: #f50;
        stroke: #f50;
        stroke-miterlimit: 10;
      }
    </style>
  </defs>
  <path class="cls-1" d="m4.46,40.34c0-8.21,1.56-14.95,4.68-20.23,3.12-5.33,7.15-9.07,12.1-11.23l4.82,7.06c-7.49,4.99-11.23,13.13-11.23,24.41s3.74,19.42,11.23,24.41l-4.82,7.06c-4.94-2.16-8.98-5.88-12.1-11.16-3.12-5.38-4.68-12.14-4.68-20.3Z"/>
  <path class="cls-1" d="m50.69,46.17l-6.05-3.67c-1.68-1.01-2.9-1.51-3.67-1.51-.72,0-1.27.24-1.66.72-.38.48-.58,1.08-.58,1.8v1.01h-9.22c-.14-.91-.22-1.82-.22-2.74,0-3.46.97-6.31,2.92-8.57,1.94-2.26,4.26-3.38,6.95-3.38,2.11,0,4.15.62,6.12,1.87l6.05,3.67c1.68,1.01,2.9,1.51,3.67,1.51.72,0,1.27-.24,1.66-.72.38-.48.58-1.08.58-1.8v-1.01h9.22c.14.96.22,1.87.22,2.74,0,3.46-.97,6.31-2.92,8.57-1.94,2.26-4.26,3.38-6.95,3.38-2.11,0-4.15-.62-6.12-1.87Z"/>
  <path class="cls-1" d="m76.32,7.94v-1.8h9.58v1.8c0,1.34.33,2.4,1.01,3.17.67.77,1.61,1.15,2.81,1.15s2.14-.38,2.81-1.15c.67-.77,1.01-1.82,1.01-3.17v-1.8h9.58v1.8c0,3.94-1.25,7.15-3.74,9.65-2.5,2.5-5.71,3.74-9.65,3.74s-7.15-1.25-9.65-3.74c-2.5-2.5-3.74-5.71-3.74-9.65Z"/>
  <path class="cls-1" d="m129.67,60.79l-16.49-28.87.72-1.3h32.98l.72,1.3-16.49,28.87h-1.44Z"/>
  <path class="cls-1" d="m157.68,7.94v-1.8h9.58v1.8c0,1.34.33,2.4,1.01,3.17.67.77,1.61,1.15,2.81,1.15s2.14-.38,2.81-1.15c.67-.77,1.01-1.82,1.01-3.17v-1.8h9.58v1.8c0,3.94-1.25,7.15-3.74,9.65-2.5,2.5-5.71,3.74-9.65,3.74s-7.15-1.25-9.65-3.74c-2.5-2.5-3.74-5.71-3.74-9.65Z"/>
  <path class="cls-1" d="m199.22,71.8l-4.82-7.06c7.49-4.99,11.23-13.13,11.23-24.41s-3.74-19.42-11.23-24.41l4.82-7.06c4.94,2.16,8.98,5.9,12.1,11.23,3.12,5.28,4.68,12.02,4.68,20.23s-1.56,14.93-4.68,20.3c-3.12,5.28-7.15,9-12.1,11.16Z"/>
  <path class="cls-1" d="m243.36,46.17l-6.05-3.67c-1.68-1.01-2.9-1.51-3.67-1.51-.72,0-1.27.24-1.66.72-.38.48-.58,1.08-.58,1.8v1.01h-9.22c-.14-.91-.22-1.82-.22-2.74,0-3.46.97-6.31,2.92-8.57,1.94-2.26,4.26-3.38,6.95-3.38,2.11,0,4.15.62,6.12,1.87l6.05,3.67c1.68,1.01,2.9,1.51,3.67,1.51.72,0,1.27-.24,1.66-.72.38-.48.58-1.08.58-1.8v-1.01h9.22c.14.96.22,1.87.22,2.74,0,3.46-.97,6.31-2.92,8.57-1.94,2.26-4.26,3.38-6.95,3.38-2.11,0-4.15-.62-6.12-1.87Z"/>
</svg>